<svg data-v-6805eed4="" version="1.0" xmlns="http://www.w3.org/2000/svg" xmlns:xlink="http://www.w3.org/1999/xlink" width="50%" height="100%" viewBox="0 0 340.000000 250.000000" preserveAspectRatio="xMidYMid meet" color-interpolation-filters="sRGB" style="margin: auto;"> <rect data-v-6805eed4="" x="0" y="0" width="100%" height="100%" fill="#feffff" fill-opacity="1" class="background"></rect> <rect data-v-6805eed4="" x="0" y="0" width="100%" height="100%" fill="url(#watermark)" fill-opacity="1" class="watermarklayer"></rect> <g data-v-6805eed4="" fill="#333" class="iconlinesvg-g iconlinesvg" transform="translate(61.81556701660156,81.00786590576172)"><g class="tp-name" transform="translate(0,0)"><g transform="translate(0, 0)"><g><g class="imagesvg"><g><rect fill="#333" fill-opacity="0" stroke-width="2" x="0" y="0" width="92.77566774365425" height="55.909501529871974" class="image-rect"></rect> <svg x="0" y="0" width="92.77566774365425" height="55.909501529871974" filtersec="colorsb7060924987" class="image-svg-svg primary" style="overflow: visible;"><svg xmlns="http://www.w3.org/2000/svg" viewBox="-0.0015021860599517822 0.020790576934814453 148.58535766601562 89.54210662841797"><title>资源 20</title><path d="M58.5 10.18c-14.73.17-23.87 5.91-27.33 17.57a35.94 35.94 0 0 0-1.24 9.82c-.12 15.31-.05 30.61-.05 45.92v5.75H.6a8.59 8.59 0 0 1-.51-2c.07-18.79-.48-37.61.5-56.36C1.29 17.29 9.38 7.75 22 2.7S46.43-.12 57.12 8.2a5.44 5.44 0 0 1 1 1.06 3.51 3.51 0 0 1 .38.92zM138 10.18c-20.6-1-30.29 14-28.79 28.9a117.42 117.42 0 0 1 0 15.47c-.21 7.28-4.4 12.63-10.9 14.45-9.45 2.67-18.62-3.77-18.91-13.59A218.7 218.7 0 0 1 79.53 32c1.09-13.82 8.4-23.73 21.15-29 12.94-5.38 25.07-3.19 36 5.65a10.55 10.55 0 0 1 1.32 1.53z" fill="#1d2088"></path><path d="M99.1 79.35c-12 10.31-24.67 13-38.32 7.22C47.29 80.83 40.33 70 39.7 55.31c-.29-6.66-.12-13.33 0-20 .12-8.65 6.29-15.12 14.5-15.37 8.54-.25 15 5.94 15.3 15 .21 5.32.09 10.66.1 16-.02 18.81 9.79 28.57 29.5 28.41zM148.57 89.32h-29.06a28 28 0 0 1-.47-3.59c0-17-.11-33.94 0-50.91.06-8.67 6.42-14.88 14.78-14.88s14.68 6.3 14.71 14.94c.09 17.96.04 35.92.04 54.44z" fill="#7ecef4"></path></svg></svg> <!----></g></g></g></g><g transform="translate(96, 4.6591354891226935)"><g data-gra="path-name" fill="#333" transform="scale(1)"><path d="M35.64 0L31.06-13.49L12.22-13.49L7.38 0L1.02 0L18.59-46.59L25.71-46.59L42.52 0L35.64 0ZM21.64-39.72L14.26-19.09L28.77-19.09L21.90-39.72L21.64-39.72Z" transform="translate(-1.0183875530410182, 46.59123055162659)"></path></g></g><g transform="translate(141, 4.6591354891226935)"><g data-gra="path-name" fill="#333" transform="scale(1)"><path d="M16.80-41.24L1.02-41.24L1.02-46.59L38.70-46.59L38.70-41.24L22.91-41.24L22.91 0L16.80 0L16.80-41.24Z" transform="translate(-1.0183875530410182, 46.59123055162659)"></path></g></g><g transform="translate(182, 4.6591354891226935)"><g data-gra="path-name" fill="#333" transform="scale(1)"><path d="M11.97-5.60L39.97-5.60L39.97 0L5.60 0L5.60-46.59L39.46-46.59L39.46-41.24L11.97-41.24L11.97-26.73L37.43-26.73L37.43-21.13L11.97-21.13L11.97-5.60Z" transform="translate(-5.6011315417256, 46.59123055162659)"></path></g></g></g> <g data-gra="path-slogan" fill-rule="" class="tp-slogan" fill="#333" transform="translate(5,70.90950393676758)"><rect x="0" height="1" y="8.04069995880127" width="81.7999324798584"></rect> <rect height="1" y="8.04069995880127" width="81.7999324798584" x="124.56893348693848"></rect> <g transform="translate(84.7999324798584,0)"><g transform="scale(1.6600000000000001)"><path d="M11.22-0.17L8.84 0.76L8.06 0.25L7.99-3.08L7.54-3.12L5.76 0.77L4.74 0.31L6.35-3.20L5.78-3.25L5.27-3.71L4.75-6.68L5.27-7.34L6.30-7.42L5.70-8.33L6.65-8.96L7.60-7.52L8.53-7.60L9.29-9.46L10.32-9.02L9.77-7.69L10.56-7.75L11.15-7.04L10.28-3.40L9.68-2.96L9.13-3L9.19-0.58L10.80-1.21L11.22-0.17ZM3.85 0.83L2.71 0.83L2.64-6.56L1.88-2.80L0.79-3.02L1.57-6.98L2.64-6.77L2.63-9.23L3.77-9.25L3.79-5.71L4.98-5.03L4.43-4.06L3.80-4.40L3.85 0.83ZM5.96-6.26L6.31-4.34L9.30-4.12L9.86-6.55L5.96-6.26ZM13.18-1.03L13.06-2.16L13.50-2.20L13.22-5.41L13.72-6.02L14.71-6.13L14.59-7.88L13.52-7.93L13.57-9.06L18.28-8.88L18.23-7.75L17.36-7.78L17.28-6.41L18.07-6.49L18.68-5.94L18.68-0.36L18.17 0.22L14.32 0.54L13.70 0.02L13.61-1.07L13.18-1.03ZM22.72-4.14L21.59-4.20L21.60-4.40L20.11-4.42L20.05-1.02L21.46-0.92L21.83-2.34L22.93-2.05L22.43-0.19L21.85 0.23L19.43 0.08L18.91-0.49L18.98-4.99L19.55-5.54L21.65-5.54L21.77-7.94L18.92-7.45L18.73-8.56L22.28-9.18L22.94-8.59L22.72-4.14ZM15.62-2.44L14.59-2.70L14.63-2.32L17.32-2.58L17.44-1.45L14.74-1.19L14.78-0.64L17.56-0.86L17.56-2.90L16.54-3.01L16.06-3.56L16.14-5.15L15.85-5.11L15.94-3.82L15.92-3.66L15.62-2.44ZM15.67-7.85L15.77-6.24L16.20-6.29L16.28-7.82L15.67-7.85ZM14.39-4.96L14.59-2.70L14.87-3.84L14.78-4.99L14.39-4.96ZM17.56-5.30L17.22-5.27L17.15-4.02L17.56-3.98L17.56-5.30Z" transform="translate(-0.792, 9.456)"></path></g></g></g></g><defs v-gra="od"></defs></svg>